<svg xmlns="http://www.w3.org/2000/svg" width="1024" height="1024">
  <path d="M153.583 256.033a51.2 51.2 0 0 1 51.2-51.2h614.4a51.19 51.19 0 0 1 36.203 14.996c9.604 9.602 14.997 22.625 14.997 36.204s-5.393 26.602-14.997 36.204a51.19 51.19 0 0 1-36.203 14.996h-614.4a51.2 51.2 0 0 1-51.2-51.2zM153.583 512.034a51.19 51.19 0 0 1 14.996-36.203 51.193 51.193 0 0 1 36.204-14.997h614.4a51.183 51.183 0 0 1 36.203 14.997 51.183 51.183 0 0 1 14.997 36.203 51.19 51.19 0 0 1-14.997 36.203 51.183 51.183 0 0 1-36.203 14.997h-614.4a51.198 51.198 0 0 1-51.2-51.2zM153.583 768.034a51.19 51.19 0 0 1 14.996-36.203 51.193 51.193 0 0 1 36.204-14.997h614.4a51.183 51.183 0 0 1 36.203 14.997 51.183 51.183 0 0 1 14.997 36.203 51.19 51.19 0 0 1-14.997 36.203 51.183 51.183 0 0 1-36.203 14.997h-614.4a51.198 51.198 0 0 1-51.2-51.2z"/>
</svg>
